<svg xmlns="http://www.w3.org/2000/svg" height="24" fill="#2ef45c" viewBox="0 -960 960 960" width="24"><path d="M140.782-206.783v-349.826q0-25.217 11.043-47.587 11.044-22.37 31.131-37.327l233.217-174.912q28.348-21.653 63.827-21.653t63.827 21.653l233.217 174.912q20.087 14.957 31.131 37.327 11.043 22.37 11.043 47.587v349.826q0 44.305-30.848 75.153-30.848 30.848-75.153 30.848h-95.694q-22.088 0-37.544-15.456-15.457-15.457-15.457-37.544v-197.739q0-22.088-15.457-37.544-15.456-15.457-37.544-15.457h-63.042q-22.088 0-37.544 15.457-15.457 15.456-15.457 37.544v197.739q0 22.087-15.457 37.544-15.456 15.456-37.544 15.456h-95.694q-44.305 0-75.153-30.848-30.848-30.848-30.848-75.153Z"/></svg>