<svg xmlns="http://www.w3.org/2000/svg" fill="#2ef45c" height="24" viewBox="0 -960 960 960" width="24"><path d="M193.782-180.782q-22.087 0-37.544-15.456-15.456-15.457-15.456-37.544 0-22.088 15.456-37.544 15.457-15.457 37.544-15.457h20.217v-260.782q0-90.348 53.109-161.913 53.108-71.566 139.891-93.262v-23.478q0-30.652 21.174-51.826 21.175-21.174 51.827-21.174 30.652 0 51.827 21.174 21.174 21.174 21.174 51.826v23.478q87.348 21.696 140.174 92.979 52.826 71.283 52.826 162.196v260.782h20.217q22.087 0 37.544 15.457 15.456 15.456 15.456 37.544 0 22.087-15.456 37.544-15.457 15.456-37.544 15.456H193.782ZM480.565-54.564q-35.826 0-61.304-25.196-25.479-25.195-25.479-61.022h173.001q0 35.827-25.196 61.022-25.196 25.196-61.022 25.196Z"/></svg>