<svg xmlns="http://www.w3.org/2000/svg" height="24" fill="#2ef45c" viewBox="0 -960 960 960" width="24"><path d="M640.133-140.782q-54.655 0-93.046-38.258-38.392-38.259-38.392-92.914t38.297-92.763Q585.29-402.826 640-402.826q6.989 0 13.342.652 6.353.652 12.527 3.391v-287.435q0-22.285 15.075-37.36t37.36-15.075h128.479q22.285 0 37.36 15.457 15.075 15.456 15.075 37.682 0 22.226-15.075 37.262-15.075 15.035-37.36 15.035h-75.478v361.13q0 54.711-38.259 93.008-38.258 38.297-92.913 38.297ZM153.217-262.345q-22.285 0-37.36-15.457-15.075-15.456-15.075-37.682 0-22.226 15.075-37.262 15.075-15.035 37.36-15.035h225.869q22.285 0 37.36 15.457t15.075 37.683q0 22.226-15.075 37.261-15.075 15.035-37.36 15.035H153.217Zm0-185.436q-22.285 0-37.36-15.457-15.075-15.456-15.075-37.682 0-22.226 15.075-37.262 15.075-15.035 37.36-15.035h380.216q22.285 0 37.361 15.457 15.075 15.456 15.075 37.682 0 22.226-15.075 37.262-15.076 15.035-37.361 15.035H153.217Zm0-185.436q-22.285 0-37.36-15.457-15.075-15.456-15.075-37.683 0-22.226 15.075-37.261 15.075-15.035 37.36-15.035h380.216q22.285 0 37.361 15.457 15.075 15.456 15.075 37.682 0 22.226-15.075 37.262-15.076 15.035-37.361 15.035H153.217Z"/></svg>