<svg xmlns="http://www.w3.org/2000/svg" height="24" fill="#2ef45c" viewBox="0 -960 960 960" width="24"><path d="M399.913-60.782q-20.087 0-34.762-13.391-14.674-13.392-17.239-32.914l-11.435-87.912q-8.478-3.305-16.304-8.044-7.825-4.739-15.434-9.912l-81.913 34.304q-18.522 8.261-37.326 1.783-18.805-6.479-29.066-24.001L76.782-340.043q-10.261-17.522-6.413-37.044 3.847-19.522 19.804-31.348l70.478-53.609q-.435-4.739-.435-8.978v-17.956q0-4.239.435-8.978l-70.478-53.043q-15.957-11.827-19.805-31.631-3.847-19.805 6.414-37.327l79.652-138.609q10.261-16.957 29.066-23.435 18.804-6.478 37.326 1.217l83.044 34.305q7.608-5.174 15.086-9.63 7.478-4.457 15.521-7.761l11.435-89.043q2.565-19.522 17.239-32.914 14.675-13.391 34.762-13.391h160.174q20.087 0 34.762 13.391 14.674 13.392 17.239 32.914l11.435 89.043q8.478 3.304 16.304 7.761 7.825 4.456 15.434 9.63l81.913-34.305q18.522-7.695 37.326-1.217 18.805 6.478 29.066 23.435l79.652 138.609q10.261 17.522 6.413 37.327-3.847 19.804-20.369 31.631l-70.478 53.043q.434 4.739.434 8.978V-480q0 4.739-.282 8.978-.283 4.239-1.152 8.978l70.478 53.043q16.522 11.827 20.369 31.631 3.848 19.805-6.413 37.327l-80.217 139.305q-10.261 17.522-29.283 23.652-19.022 6.131-37.544-1.565l-81.044-34.304q-7.608 5.173-15.086 9.912-7.478 4.739-15.521 8.044l-11.435 87.912q-2.565 19.522-17.239 32.914-14.675 13.391-34.762 13.391H399.913ZM480.304-340q58 0 99-41t41-99q0-58-41-99t-99-41q-58.434 0-99.217 41t-40.783 99q0 58 40.783 99t99.217 41Z"/></svg>